<svg id="svg" version="1.1" width="400" height="400" viewBox="0 0 400 400" xmlns="http://www.w3.org/2000/svg" xmlns:xlink="http://www.w3.org/1999/xlink"><g id="svgg"><path id="path0" d="M176.225 27.900 C 176.738 30.241,177.206 31.245,179.104 34.074 C 180.184 35.683,181.753 38.260,182.591 39.800 C 183.428 41.340,185.500 44.760,187.196 47.400 C 191.804 54.577,191.952 54.190,184.379 54.802 C 132.254 59.011,95.860 88.881,86.417 135.200 C 81.100 161.284,77.064 170.896,66.081 183.632 C 61.767 188.635,60.755 189.535,54.629 193.815 C 49.870 197.140,49.666 197.676,53.000 198.106 C 58.022 198.754,65.607 197.016,72.149 193.719 C 75.883 191.837,75.483 193.786,69.793 205.180 C 59.329 226.133,56.185 240.527,58.588 256.471 C 59.685 263.750,64.764 275.681,68.532 279.829 C 70.946 282.488,71.104 282.065,70.077 275.687 C 68.195 263.994,68.702 256.645,71.885 249.500 C 73.551 245.760,73.701 246.339,74.192 258.417 C 75.223 283.778,87.910 303.754,110.313 315.288 C 116.862 318.661,117.493 318.121,113.607 312.467 C 110.113 307.381,109.216 305.605,107.617 300.600 C 105.397 293.652,105.545 290.632,107.910 294.654 C 117.187 310.435,132.423 321.052,153.436 326.382 C 156.489 327.156,157.250 329.791,157.311 339.800 C 157.389 352.716,153.724 360.739,144.618 367.588 C 140.346 370.802,139.482 371.690,139.670 372.670 C 139.806 373.372,142.108 373.404,200.105 373.501 L 260.400 373.603 260.400 372.682 C 260.400 371.613,258.733 369.959,254.340 366.669 C 245.450 360.010,241.466 349.051,242.825 335.000 C 243.611 326.884,243.338 327.233,250.328 325.389 C 259.359 323.007,268.151 318.845,275.046 313.689 C 281.691 308.720,286.693 303.319,291.426 296.002 C 294.362 291.463,294.871 292.962,292.783 299.994 C 291.318 304.922,290.017 307.582,287.047 311.718 C 282.870 317.536,283.101 318.472,288.162 316.234 C 311.617 305.861,325.165 283.977,326.192 254.800 C 326.486 246.463,326.740 245.696,328.171 248.830 C 331.237 255.542,331.828 264.283,330.021 276.168 C 329.590 279.007,329.461 280.914,329.691 281.056 C 331.586 282.227,339.345 267.350,340.988 259.397 C 344.359 243.076,341.712 229.339,330.698 205.999 C 321.709 186.950,319.176 177.300,316.387 151.480 C 315.394 142.286,314.763 138.576,313.007 131.600 C 305.481 101.697,287.008 80.529,263.100 74.409 L 258.699 73.282 255.249 69.905 C 250.451 65.206,242.856 59.125,233.800 52.731 C 231.160 50.868,226.120 47.301,222.600 44.805 C 212.613 37.725,208.429 34.789,205.400 32.738 C 200.822 29.637,200.668 29.477,200.877 28.058 L 201.061 26.800 188.523 26.800 L 175.985 26.800 176.225 27.900 M266.647 112.249 C 269.910 113.797,269.787 112.939,269.905 135.000 C 270.024 157.351,270.150 156.471,266.621 158.032 C 264.900 158.793,263.484 158.807,199.532 158.705 L 134.200 158.600 132.743 157.694 C 129.959 155.963,130.000 156.301,130.001 134.940 C 130.003 113.196,129.895 113.935,133.308 112.386 C 135.735 111.284,264.336 111.152,266.647 112.249 M155.193 174.741 C 158.097 176.298,158.185 176.629,158.329 186.511 C 158.551 201.804,158.528 201.826,142.908 201.515 C 129.764 201.254,130.200 201.734,130.200 187.530 C 130.200 173.516,129.698 174.002,144.206 174.001 C 152.792 174.000,153.959 174.079,155.193 174.741 M191.992 174.701 C 195.023 176.223,195.200 176.935,195.199 187.559 C 195.198 201.910,195.707 201.400,181.399 201.400 C 166.930 201.400,167.450 201.906,167.287 187.672 C 167.125 173.469,166.569 174.022,181.000 174.010 C 189.353 174.002,190.781 174.092,191.992 174.701 M229.572 174.701 C 232.489 176.189,232.587 176.566,232.714 186.928 C 232.895 201.568,233.059 201.400,218.600 201.400 C 204.272 201.400,204.659 201.773,204.486 187.800 C 204.313 173.724,204.035 174.000,218.359 174.001 C 226.938 174.001,228.376 174.091,229.572 174.701 M267.384 174.790 C 269.648 176.189,269.781 176.852,269.909 187.400 C 270.086 201.925,270.608 201.399,256.032 201.400 C 241.135 201.400,241.800 202.057,241.800 187.342 C 241.800 176.201,241.730 176.517,244.600 174.744 C 246.486 173.579,265.487 173.618,267.384 174.790 M155.660 210.708 C 158.106 212.229,158.400 213.563,158.398 223.108 C 158.395 232.388,158.126 233.954,156.199 235.881 L 154.880 237.200 144.740 237.199 C 129.790 237.198,130.260 237.601,130.067 224.635 C 129.841 209.395,129.640 209.598,144.800 209.723 C 153.807 209.797,154.261 209.838,155.660 210.708 M192.647 210.625 C 195.398 212.680,195.400 212.692,195.398 223.130 C 195.394 237.787,195.934 237.265,180.941 237.109 C 166.694 236.961,167.223 237.505,167.209 222.959 C 167.196 209.246,166.899 209.518,181.672 209.687 C 190.922 209.793,191.613 209.852,192.647 210.625 M229.847 210.625 C 232.561 212.653,232.588 212.768,232.722 222.713 C 232.858 232.814,232.597 234.290,230.341 236.189 L 229.139 237.200 218.869 237.199 C 204.175 237.196,204.673 237.652,204.468 224.046 C 204.246 209.370,203.973 209.638,219.072 209.737 C 228.163 209.796,228.810 209.850,229.847 210.625 M267.310 210.504 C 269.646 212.036,269.800 212.851,269.800 223.670 C 269.800 237.781,270.335 237.281,255.400 237.113 C 241.368 236.955,241.891 237.413,241.668 225.070 C 241.389 209.539,241.335 209.594,256.619 209.720 C 265.040 209.790,266.371 209.888,267.310 210.504 M155.600 246.343 C 158.173 247.550,158.400 248.577,158.391 259.000 C 158.378 273.413,158.856 272.949,143.972 272.979 L 133.743 273.000 132.288 271.892 C 130.228 270.324,130.004 269.054,130.011 259.000 C 130.021 244.974,129.820 245.158,144.800 245.483 C 152.368 245.647,154.473 245.815,155.600 246.343 M192.558 246.347 C 195.361 247.927,195.411 248.165,195.298 259.301 C 195.148 273.927,195.840 273.271,180.731 273.110 L 170.463 273.000 169.380 272.000 C 167.353 270.128,167.200 269.211,167.201 258.913 C 167.204 245.374,166.747 245.899,178.800 245.589 C 188.528 245.338,191.010 245.475,192.558 246.347 M229.828 246.232 C 232.441 247.544,232.600 248.293,232.600 259.270 C 232.600 273.485,233.092 273.000,218.671 273.000 C 203.883 273.000,204.600 273.691,204.600 259.452 C 204.600 244.855,204.100 245.302,220.200 245.507 C 226.807 245.592,228.862 245.747,229.828 246.232 M266.532 245.746 C 267.250 246.046,268.324 246.870,268.919 247.576 L 270.000 248.861 270.000 277.278 L 270.000 305.694 268.487 307.207 C 266.597 309.097,265.732 309.210,253.983 309.089 C 240.288 308.948,241.603 312.340,241.601 277.159 L 241.600 249.318 242.508 247.959 C 244.234 245.375,245.066 245.201,255.713 245.201 C 262.844 245.200,265.553 245.337,266.532 245.746 M155.713 282.106 C 158.085 283.661,158.188 284.136,158.334 294.180 C 158.484 304.542,158.297 305.705,156.181 307.563 L 154.772 308.800 144.573 308.800 C 129.445 308.800,130.018 309.343,130.018 295.000 C 130.018 280.624,129.453 281.160,144.419 281.303 C 153.404 281.388,154.767 281.485,155.713 282.106 M192.386 281.901 C 194.984 283.211,195.128 283.855,195.271 294.800 C 195.462 309.338,196.004 308.796,181.262 308.799 C 166.686 308.801,167.200 309.307,167.200 294.939 C 167.200 280.714,166.705 281.200,181.194 281.201 C 189.734 281.201,191.179 281.292,192.386 281.901 M229.522 282.059 C 232.604 283.551,232.878 284.700,232.727 295.518 C 232.535 309.238,233.004 308.797,218.600 308.797 C 204.240 308.797,204.716 309.240,204.472 295.637 C 204.212 281.118,204.084 281.246,218.774 281.218 C 227.156 281.201,227.864 281.257,229.522 282.059 " stroke="none" fill="#e97484" fill-rule="evenodd"></path><path id="path1" d="M97.050 27.083 C 97.004 27.129,96.074 27.255,94.983 27.363 C 93.892 27.470,91.925 27.764,90.610 28.016 C 89.296 28.268,87.856 28.523,87.410 28.584 C 86.965 28.645,86.294 28.824,85.919 28.983 C 85.545 29.141,85.062 29.162,84.847 29.029 C 84.631 28.896,84.335 28.982,84.187 29.221 C 84.040 29.459,83.685 29.565,83.399 29.455 C 83.112 29.345,82.765 29.368,82.628 29.506 C 82.490 29.644,82.157 29.801,81.888 29.855 C 80.248 30.185,79.567 30.390,78.879 30.758 C 78.453 30.986,77.992 31.058,77.853 30.919 C 77.714 30.780,77.600 30.848,77.600 31.069 C 77.600 31.291,76.835 31.713,75.900 32.007 C 74.965 32.301,74.020 32.640,73.800 32.760 C 73.580 32.880,73.220 33.003,73.000 33.032 C 71.948 33.172,70.800 33.736,70.800 34.113 C 70.800 34.344,70.683 34.417,70.541 34.274 C 70.247 33.980,67.200 35.591,67.200 36.041 C 67.200 36.202,66.390 36.643,65.400 37.021 C 64.410 37.399,63.598 37.819,63.596 37.954 C 63.594 38.089,62.795 38.550,61.821 38.979 C 60.847 39.407,60.139 39.902,60.249 40.079 C 60.358 40.255,60.174 40.400,59.839 40.400 C 59.505 40.400,58.864 40.794,58.416 41.275 C 57.967 41.757,57.600 42.035,57.600 41.894 C 57.600 41.752,57.195 42.035,56.700 42.522 C 56.205 43.010,55.170 43.920,54.400 44.545 C 53.630 45.170,53.253 45.545,53.562 45.379 C 53.937 45.177,54.027 45.232,53.834 45.545 C 53.675 45.802,53.386 45.915,53.193 45.796 C 52.591 45.424,43.701 54.672,42.584 56.830 C 42.263 57.452,41.754 58.104,41.454 58.280 C 41.154 58.456,40.591 59.221,40.202 59.980 C 39.814 60.740,39.250 61.608,38.948 61.909 C 38.647 62.210,38.400 62.714,38.400 63.029 C 38.400 63.343,38.256 63.600,38.080 63.600 C 37.904 63.600,37.362 64.365,36.876 65.300 C 36.389 66.235,35.637 67.585,35.204 68.300 C 34.771 69.015,34.548 69.603,34.708 69.606 C 34.869 69.609,34.820 69.744,34.600 69.906 C 33.922 70.404,33.160 72.012,33.410 72.416 C 33.540 72.627,33.457 72.800,33.224 72.800 C 32.991 72.800,32.829 72.935,32.864 73.100 C 32.956 73.538,32.162 75.610,30.803 78.474 C 30.522 79.064,30.390 79.920,30.509 80.374 C 30.628 80.829,30.562 81.100,30.363 80.977 C 30.163 80.854,30.000 81.113,30.000 81.553 C 30.000 81.993,29.856 82.442,29.680 82.551 C 29.504 82.660,29.314 83.521,29.258 84.464 C 29.203 85.407,28.967 86.297,28.736 86.440 C 28.452 86.615,28.473 86.798,28.800 87.000 C 29.105 87.189,29.137 87.393,28.887 87.550 C 28.667 87.688,28.423 88.790,28.344 90.000 C 28.265 91.210,28.057 92.306,27.882 92.435 C 27.707 92.564,27.501 93.464,27.424 94.435 C 27.231 96.885,27.154 303.598,27.346 303.931 C 27.432 304.079,27.478 305.071,27.448 306.136 C 27.418 307.201,27.530 308.157,27.697 308.260 C 27.864 308.363,28.000 308.897,28.000 309.447 C 28.000 309.997,28.162 310.347,28.360 310.225 C 28.558 310.102,28.719 310.856,28.717 311.901 C 28.712 314.543,28.758 314.873,29.100 314.665 C 29.265 314.564,29.428 315.192,29.461 316.059 C 29.554 318.454,29.946 319.679,30.512 319.340 C 30.881 319.118,30.892 319.187,30.556 319.623 C 30.124 320.183,31.185 323.482,31.647 323.019 C 31.747 322.920,31.863 323.258,31.906 323.771 C 31.948 324.284,32.145 325.130,32.344 325.652 C 32.542 326.173,32.705 326.690,32.705 326.800 C 32.707 327.364,34.052 330.109,34.589 330.646 C 34.929 330.986,35.105 331.430,34.980 331.632 C 34.855 331.835,35.044 332.000,35.400 332.000 C 35.756 332.000,35.936 332.180,35.800 332.400 C 35.664 332.620,35.754 332.800,36.000 332.800 C 36.246 332.800,36.354 332.950,36.241 333.134 C 35.795 333.855,39.599 340.268,40.147 339.720 C 40.286 339.581,40.400 339.966,40.400 340.576 C 40.400 341.381,40.559 341.624,40.980 341.463 C 41.367 341.315,41.485 341.433,41.337 341.820 C 41.214 342.139,41.324 342.400,41.581 342.400 C 41.837 342.400,41.917 342.611,41.758 342.868 C 41.564 343.182,41.686 343.253,42.130 343.082 C 42.493 342.943,42.753 342.957,42.706 343.114 C 42.492 343.842,44.953 346.899,45.417 346.481 C 45.588 346.326,45.598 346.426,45.439 346.703 C 45.078 347.329,55.614 357.852,56.108 357.358 C 56.186 357.280,57.042 357.933,58.009 358.808 C 58.976 359.684,59.897 360.400,60.055 360.400 C 60.214 360.400,60.626 360.683,60.971 361.029 C 61.317 361.374,61.600 361.472,61.600 361.247 C 61.600 361.021,62.015 361.233,62.523 361.718 C 63.783 362.922,65.195 363.821,65.635 363.700 C 65.836 363.645,66.000 363.791,66.000 364.024 C 66.000 364.257,66.165 364.345,66.366 364.221 C 66.567 364.097,66.823 364.221,66.934 364.498 C 67.082 364.865,67.145 364.849,67.168 364.439 C 67.190 364.064,67.466 364.184,68.000 364.800 C 68.519 365.398,68.802 365.525,68.806 365.161 C 68.810 364.785,68.909 364.747,69.106 365.044 C 69.532 365.688,71.854 366.812,72.149 366.517 C 72.287 366.379,72.400 366.468,72.400 366.715 C 72.400 367.343,75.063 368.538,75.818 368.249 C 76.161 368.117,76.349 368.159,76.236 368.342 C 75.977 368.761,78.792 369.652,79.328 369.321 C 79.545 369.186,79.607 369.265,79.464 369.496 C 79.088 370.105,80.215 370.424,80.780 369.869 C 81.146 369.510,81.227 369.528,81.129 369.947 C 81.007 370.462,81.447 370.653,83.438 370.951 C 83.899 371.020,84.501 371.215,84.776 371.385 C 85.051 371.555,86.206 371.734,87.343 371.782 C 88.480 371.831,89.834 372.097,90.353 372.375 C 90.944 372.691,91.195 372.715,91.025 372.440 C 90.875 372.198,90.943 372.000,91.176 372.000 C 91.409 372.000,91.600 372.210,91.600 372.467 C 91.600 372.723,91.714 372.820,91.853 372.681 C 91.992 372.542,92.430 372.602,92.826 372.814 C 93.277 373.055,93.914 373.061,94.523 372.829 C 95.189 372.576,95.648 372.608,95.969 372.929 C 96.315 373.276,102.173 373.430,118.186 373.513 L 139.932 373.626 139.716 372.800 C 139.434 371.722,140.189 370.920,144.618 367.588 C 153.724 360.739,157.389 352.716,157.311 339.800 C 157.250 329.791,156.489 327.156,153.436 326.382 C 132.423 321.052,117.187 310.435,107.910 294.654 C 105.545 290.632,105.397 293.652,107.617 300.600 C 109.216 305.605,110.113 307.381,113.607 312.467 C 117.493 318.121,116.862 318.661,110.313 315.288 C 87.910 303.754,75.223 283.778,74.192 258.417 C 73.701 246.339,73.551 245.760,71.885 249.500 C 68.702 256.645,68.195 263.994,70.077 275.687 C 71.104 282.065,70.946 282.488,68.532 279.829 C 64.764 275.681,59.685 263.750,58.588 256.471 C 56.185 240.527,59.329 226.133,69.793 205.180 C 75.483 193.786,75.883 191.837,72.149 193.719 C 65.607 197.016,58.022 198.754,53.000 198.106 C 49.666 197.676,49.870 197.140,54.629 193.815 C 60.755 189.535,61.767 188.635,66.081 183.632 C 77.064 170.896,81.100 161.284,86.417 135.200 C 95.860 88.881,132.254 59.011,184.379 54.802 C 191.952 54.190,191.804 54.577,187.196 47.400 C 185.500 44.760,183.428 41.340,182.591 39.800 C 181.753 38.260,180.184 35.683,179.104 34.074 C 177.225 31.273,176.729 30.218,176.251 28.000 L 176.035 27.000 136.584 27.000 C 114.886 27.000,97.096 27.038,97.050 27.083 M200.967 27.167 C 199.843 28.291,201.551 30.370,205.799 33.045 C 207.063 33.841,212.018 37.311,222.600 44.808 C 226.120 47.302,231.160 50.868,233.800 52.731 C 242.856 59.125,250.451 65.206,255.249 69.905 L 258.699 73.282 263.100 74.409 C 287.008 80.529,305.481 101.697,313.007 131.600 C 314.763 138.576,315.394 142.286,316.387 151.480 C 318.350 169.654,320.064 178.407,324.086 190.800 C 324.764 192.890,327.740 199.730,330.698 205.999 C 341.712 229.339,344.359 243.076,340.988 259.397 C 339.345 267.350,331.586 282.227,329.691 281.056 C 329.461 280.914,329.590 279.007,330.021 276.168 C 331.828 264.283,331.237 255.542,328.171 248.830 C 326.740 245.696,326.486 246.463,326.192 254.800 C 325.165 283.977,311.617 305.861,288.162 316.234 C 283.101 318.472,282.870 317.536,287.047 311.718 C 290.017 307.582,291.318 304.922,292.783 299.994 C 294.871 292.962,294.362 291.463,291.426 296.002 C 286.693 303.319,281.691 308.720,275.046 313.689 C 268.151 318.845,259.359 323.007,250.328 325.389 C 243.338 327.233,243.611 326.884,242.825 335.000 C 241.466 349.051,245.450 360.010,254.340 366.669 C 258.753 369.974,260.400 371.612,260.400 372.694 L 260.400 373.626 281.980 373.513 C 297.865 373.430,303.685 373.276,304.031 372.929 C 304.352 372.608,304.811 372.576,305.477 372.829 C 306.086 373.061,306.723 373.055,307.174 372.814 C 307.570 372.602,308.008 372.542,308.147 372.681 C 308.286 372.820,308.400 372.723,308.400 372.467 C 308.400 372.210,308.591 372.000,308.824 372.000 C 309.057 372.000,309.125 372.198,308.975 372.440 C 308.805 372.715,309.056 372.691,309.647 372.375 C 310.166 372.097,311.520 371.831,312.657 371.782 C 313.794 371.734,314.949 371.555,315.224 371.385 C 315.499 371.215,316.101 371.020,316.562 370.951 C 318.553 370.653,318.993 370.462,318.871 369.947 C 318.773 369.528,318.854 369.510,319.220 369.869 C 319.785 370.424,320.912 370.105,320.536 369.496 C 320.393 369.265,320.464 369.192,320.692 369.333 C 321.202 369.648,323.600 368.857,323.600 368.373 C 323.600 368.182,323.871 368.129,324.203 368.257 C 324.942 368.540,327.600 367.334,327.600 366.715 C 327.600 366.468,327.713 366.379,327.851 366.517 C 328.146 366.812,330.468 365.688,330.894 365.044 C 331.091 364.747,331.190 364.785,331.194 365.161 C 331.198 365.535,331.455 365.429,331.961 364.845 C 332.507 364.216,332.781 364.113,332.930 364.484 C 333.097 364.901,333.143 364.899,333.168 364.476 C 333.186 364.188,333.380 364.064,333.600 364.200 C 333.820 364.336,334.000 364.257,334.000 364.024 C 334.000 363.791,334.164 363.645,334.365 363.700 C 334.785 363.815,336.160 362.961,337.425 361.800 C 337.905 361.360,338.543 360.941,338.845 360.868 C 339.146 360.795,339.504 360.555,339.641 360.334 C 339.778 360.113,340.049 359.929,340.245 359.926 C 340.440 359.923,340.540 359.713,340.467 359.460 C 340.393 359.207,340.464 359.130,340.623 359.289 C 340.782 359.449,341.768 358.909,342.815 358.089 C 343.861 357.270,345.231 356.242,345.859 355.804 C 348.192 354.177,354.853 347.210,354.561 346.703 C 354.402 346.426,354.412 346.326,354.583 346.481 C 355.047 346.899,357.508 343.842,357.294 343.114 C 357.247 342.957,357.454 342.923,357.753 343.037 C 358.334 343.260,358.950 342.167,358.581 341.568 C 358.458 341.371,358.638 341.316,358.979 341.447 C 359.448 341.627,359.600 341.414,359.600 340.576 C 359.600 339.966,359.714 339.581,359.853 339.720 C 360.090 339.956,362.400 337.095,362.400 336.565 C 362.400 336.432,362.761 335.817,363.201 335.198 C 363.642 334.579,364.042 333.606,364.089 333.036 C 364.139 332.427,364.427 331.987,364.787 331.968 C 365.222 331.946,365.250 331.877,364.884 331.730 C 364.508 331.579,364.588 331.330,365.181 330.817 C 365.858 330.229,367.106 327.921,367.135 327.200 C 367.140 327.090,367.340 326.483,367.580 325.852 C 367.820 325.220,368.051 324.288,368.093 323.780 C 368.135 323.273,368.285 322.929,368.425 323.016 C 368.844 323.275,369.726 320.128,369.388 319.581 C 369.188 319.258,369.238 319.176,369.526 319.355 C 370.054 319.681,370.542 318.094,370.576 315.940 C 370.589 315.137,370.735 314.562,370.900 314.663 C 371.231 314.866,371.275 314.588,371.298 312.100 C 371.307 311.165,371.469 310.400,371.657 310.400 C 371.846 310.400,372.000 309.961,372.000 309.424 C 372.000 308.887,372.136 308.363,372.303 308.260 C 372.470 308.157,372.582 307.201,372.552 306.136 C 372.522 305.071,372.568 304.079,372.654 303.931 C 372.846 303.598,372.769 96.885,372.576 94.435 C 372.499 93.464,372.293 92.564,372.118 92.435 C 371.943 92.306,371.778 91.570,371.751 90.800 C 371.626 87.262,371.604 87.150,371.100 87.453 C 370.722 87.680,370.726 87.598,371.117 87.116 C 371.425 86.735,371.474 86.422,371.237 86.339 C 371.019 86.263,370.795 85.423,370.740 84.474 C 370.685 83.525,370.496 82.660,370.320 82.551 C 370.144 82.442,370.000 81.993,370.000 81.553 C 370.000 81.113,369.837 80.854,369.637 80.977 C 369.438 81.100,369.372 80.829,369.491 80.374 C 369.610 79.920,369.478 79.064,369.197 78.474 C 367.838 75.610,367.044 73.538,367.136 73.100 C 367.171 72.935,367.009 72.800,366.776 72.800 C 366.543 72.800,366.460 72.627,366.590 72.416 C 366.840 72.012,366.078 70.404,365.400 69.906 C 365.180 69.744,365.131 69.609,365.292 69.606 C 365.452 69.603,365.229 69.015,364.796 68.300 C 364.362 67.585,363.691 66.370,363.304 65.600 C 362.917 64.830,362.375 63.962,362.100 63.671 C 361.825 63.381,361.600 62.989,361.600 62.800 C 361.600 62.611,361.353 62.210,361.052 61.909 C 360.750 61.608,360.183 60.740,359.790 59.980 C 359.398 59.221,358.790 58.381,358.439 58.113 C 358.087 57.845,357.935 57.620,358.100 57.613 C 358.265 57.606,358.085 57.266,357.700 56.857 C 357.315 56.449,356.280 55.254,355.400 54.201 C 352.678 50.947,347.178 45.567,346.807 45.796 C 346.614 45.915,346.325 45.802,346.166 45.545 C 345.973 45.232,346.063 45.177,346.438 45.379 C 346.747 45.545,346.370 45.170,345.600 44.545 C 344.830 43.920,343.795 43.010,343.300 42.522 C 342.805 42.035,342.400 41.752,342.400 41.894 C 342.400 42.035,342.049 41.802,341.619 41.375 C 340.466 40.230,339.967 39.883,338.200 39.000 C 337.320 38.560,336.509 38.081,336.399 37.936 C 336.288 37.791,335.433 37.367,334.499 36.993 C 333.564 36.619,332.800 36.186,332.800 36.030 C 332.800 35.588,329.749 33.984,329.459 34.274 C 329.317 34.417,329.200 34.344,329.200 34.113 C 329.200 33.736,328.052 33.172,327.000 33.032 C 326.780 33.003,326.420 32.880,326.200 32.760 C 325.980 32.640,325.035 32.301,324.100 32.007 C 323.165 31.713,322.400 31.291,322.400 31.069 C 322.400 30.848,322.287 30.779,322.149 30.917 C 322.011 31.055,321.408 30.914,320.809 30.605 C 319.959 30.165,319.605 30.147,319.201 30.520 C 318.796 30.895,318.745 30.890,318.965 30.500 C 319.120 30.225,319.057 29.977,318.824 29.950 C 317.801 29.829,317.652 29.785,317.394 29.528 C 317.244 29.378,316.888 29.345,316.601 29.455 C 316.315 29.565,315.967 29.470,315.828 29.245 C 315.688 29.019,315.308 28.937,314.982 29.062 C 314.656 29.187,314.151 29.091,313.858 28.848 C 313.566 28.606,313.252 28.481,313.162 28.571 C 313.072 28.662,311.378 28.411,309.399 28.014 C 307.141 27.561,305.628 27.431,305.339 27.663 C 305.050 27.895,304.825 27.876,304.737 27.612 C 304.602 27.207,201.370 26.763,200.967 27.167 M133.308 112.386 C 129.895 113.935,130.003 113.196,130.001 134.940 C 130.000 156.301,129.959 155.963,132.743 157.694 L 134.200 158.600 199.532 158.705 C 263.484 158.807,264.900 158.793,266.621 158.032 C 270.150 156.471,270.024 157.351,269.905 135.000 C 269.787 112.939,269.910 113.797,266.647 112.249 C 264.336 111.152,135.735 111.284,133.308 112.386 M265.804 113.376 C 268.843 114.646,268.797 114.310,268.797 135.200 C 268.797 155.573,268.804 155.514,266.364 156.819 C 264.830 157.640,134.639 157.449,133.380 156.624 C 131.162 155.170,131.168 155.231,131.289 134.630 L 131.400 115.664 132.378 114.623 C 132.916 114.051,133.906 113.423,134.578 113.227 C 136.864 112.563,264.203 112.707,265.804 113.376 M133.228 174.701 C 130.262 176.213,130.200 176.477,130.200 187.530 C 130.200 201.734,129.764 201.254,142.908 201.515 C 158.528 201.826,158.551 201.804,158.329 186.511 C 158.142 173.689,158.493 174.000,144.206 174.001 C 135.851 174.001,134.421 174.092,133.228 174.701 M170.049 174.684 C 167.279 176.048,167.161 176.603,167.287 187.672 C 167.450 201.906,166.930 201.400,181.399 201.400 C 195.707 201.400,195.198 201.910,195.199 187.559 C 195.200 173.696,195.516 173.997,181.000 174.010 C 172.865 174.017,171.194 174.120,170.049 174.684 M207.159 174.908 C 204.527 176.666,204.359 177.477,204.486 187.800 C 204.659 201.773,204.272 201.400,218.600 201.400 C 233.059 201.400,232.895 201.568,232.714 186.928 C 232.550 173.576,233.023 174.002,218.359 174.001 C 208.794 174.000,208.480 174.025,207.159 174.908 M244.600 174.744 C 241.730 176.517,241.800 176.201,241.800 187.342 C 241.800 202.057,241.135 201.400,256.032 201.400 C 270.608 201.399,270.086 201.925,269.909 187.400 C 269.737 173.309,270.457 173.999,255.953 174.001 C 246.768 174.003,245.686 174.074,244.600 174.744 M134.006 209.991 C 130.507 210.860,129.896 213.129,130.067 224.635 C 130.260 237.601,129.790 237.198,144.740 237.199 L 154.880 237.200 156.199 235.881 C 158.126 233.954,158.395 232.388,158.398 223.108 C 158.401 209.682,158.558 209.836,144.800 209.723 C 139.630 209.680,134.773 209.801,134.006 209.991 M170.408 210.287 C 167.381 211.837,167.199 212.560,167.209 222.959 C 167.223 237.505,166.694 236.961,180.941 237.109 C 195.934 237.265,195.394 237.787,195.398 223.130 C 195.400 212.692,195.398 212.680,192.647 210.625 C 191.040 209.424,172.639 209.144,170.408 210.287 M208.600 209.883 C 204.901 210.855,204.299 212.918,204.468 224.046 C 204.673 237.652,204.175 237.196,218.869 237.199 L 229.139 237.200 230.341 236.189 C 232.597 234.290,232.858 232.814,232.722 222.713 C 232.544 209.503,232.885 209.827,219.072 209.737 C 213.752 209.702,209.040 209.768,208.600 209.883 M245.741 210.021 C 242.067 211.131,241.458 213.382,241.668 225.070 C 241.891 237.413,241.368 236.955,255.400 237.113 C 270.335 237.281,269.800 237.781,269.800 223.670 C 269.800 209.201,270.398 209.834,256.619 209.720 C 251.328 209.677,246.433 209.812,245.741 210.021 M134.377 245.585 C 130.405 246.769,130.019 247.955,130.011 259.000 C 130.004 269.054,130.228 270.324,132.288 271.892 L 133.743 273.000 143.972 272.979 C 158.856 272.949,158.378 273.413,158.391 259.000 C 158.403 245.284,158.911 245.789,144.800 245.483 C 139.630 245.371,134.939 245.417,134.377 245.585 M178.800 245.589 C 166.747 245.899,167.204 245.374,167.201 258.913 C 167.200 269.211,167.353 270.128,169.380 272.000 L 170.463 273.000 180.731 273.110 C 195.840 273.271,195.148 273.927,195.298 259.301 C 195.446 244.786,195.882 245.149,178.800 245.589 M209.965 245.611 C 205.003 246.182,204.600 247.222,204.600 259.452 C 204.600 273.691,203.883 273.000,218.671 273.000 C 233.092 273.000,232.600 273.485,232.600 259.270 C 232.600 245.195,233.029 245.672,220.200 245.507 C 215.580 245.448,210.974 245.495,209.965 245.611 M244.808 245.901 C 244.042 246.285,243.007 247.212,242.508 247.959 L 241.600 249.318 241.601 277.159 C 241.603 312.340,240.288 308.948,253.983 309.089 C 265.732 309.210,266.597 309.097,268.487 307.207 L 270.000 305.694 270.000 277.278 L 270.000 248.861 268.919 247.576 C 267.046 245.351,266.205 245.200,255.713 245.201 C 247.454 245.201,246.016 245.293,244.808 245.901 M266.265 247.001 C 268.885 248.096,268.800 247.083,268.800 277.206 C 268.800 305.639,268.810 305.468,267.053 306.891 C 266.024 307.725,246.839 307.965,245.085 307.166 C 242.730 306.093,242.800 307.015,242.801 277.138 C 242.803 246.439,242.686 247.670,245.685 246.888 C 247.963 246.293,264.793 246.386,266.265 247.001 M171.297 249.700 C 171.636 250.628,171.123 253.200,170.599 253.200 C 169.604 253.200,169.213 250.547,170.080 249.680 C 170.694 249.066,171.068 249.072,171.297 249.700 M207.832 258.000 C 207.929 260.530,208.089 264.265,208.189 266.300 C 208.337 269.323,208.266 270.000,207.799 270.000 C 206.673 270.000,206.404 268.505,206.562 263.131 C 206.648 260.199,206.749 256.360,206.785 254.600 C 206.883 249.836,207.610 252.197,207.832 258.000 M222.400 252.377 C 222.400 253.357,220.769 254.597,220.357 253.930 C 220.201 253.678,220.179 253.186,220.308 252.836 C 220.803 251.488,222.400 251.138,222.400 252.377 M179.200 263.829 C 179.200 264.743,179.133 264.790,178.600 264.257 C 178.270 263.927,178.000 263.464,178.000 263.229 C 178.000 262.993,178.270 262.800,178.600 262.800 C 178.978 262.800,179.200 263.181,179.200 263.829 M132.887 281.789 C 130.358 282.912,130.018 284.482,130.018 295.000 C 130.018 309.343,129.445 308.800,144.573 308.800 L 154.772 308.800 156.181 307.563 C 158.297 305.705,158.484 304.542,158.334 294.180 C 158.140 280.808,158.823 281.440,144.419 281.303 C 136.171 281.224,133.947 281.318,132.887 281.789 M170.025 281.931 C 167.390 283.344,167.200 284.218,167.200 294.939 C 167.200 309.307,166.686 308.801,181.262 308.799 C 196.004 308.796,195.462 309.338,195.271 294.800 C 195.085 280.581,195.727 281.202,181.194 281.201 C 172.460 281.200,171.239 281.280,170.025 281.931 M208.274 281.780 C 204.560 283.104,204.266 284.173,204.472 295.637 C 204.716 309.240,204.240 308.797,218.600 308.797 C 233.004 308.797,232.535 309.238,232.727 295.518 C 232.927 281.180,232.936 281.190,218.774 281.218 C 212.257 281.230,209.382 281.384,208.274 281.780 M135.576 283.771 C 136.452 284.827,134.277 287.945,133.005 287.457 C 132.127 287.120,132.249 284.951,133.200 284.000 C 134.143 283.057,134.921 282.982,135.576 283.771 M208.400 285.020 C 208.400 285.361,208.675 286.171,209.010 286.820 C 209.346 287.469,209.458 288.000,209.259 288.000 C 208.760 288.000,208.000 293.410,208.000 296.957 C 208.000 298.565,207.782 300.492,207.514 301.240 L 207.029 302.600 206.762 301.400 C 206.317 299.401,206.360 286.023,206.814 285.174 C 207.309 284.249,208.400 284.143,208.400 285.020 M170.800 285.224 C 170.800 285.457,170.980 285.536,171.200 285.400 C 171.450 285.246,171.600 286.055,171.600 287.553 C 171.600 288.873,171.420 290.064,171.200 290.200 C 170.980 290.336,170.800 290.717,170.800 291.047 C 170.800 291.377,170.980 291.536,171.200 291.400 C 171.720 291.079,171.706 291.578,171.150 293.173 C 170.810 294.147,170.817 294.683,171.177 295.357 C 171.734 296.398,171.841 302.302,171.343 304.543 L 171.000 306.086 170.245 305.251 C 169.610 304.548,169.514 303.925,169.638 301.308 C 169.719 299.599,169.726 295.378,169.652 291.928 C 169.578 288.479,169.637 285.464,169.783 285.228 C 170.123 284.677,170.800 284.674,170.800 285.224 M135.101 300.100 C 136.401 301.493,136.581 302.863,135.623 304.080 C 135.170 304.656,134.800 305.323,134.800 305.563 C 134.800 306.150,133.480 306.120,132.880 305.520 C 132.172 304.812,132.297 301.698,133.086 300.362 C 133.912 298.965,134.027 298.950,135.101 300.100 " stroke="none" fill="#f4e8d2" fill-rule="evenodd"></path><path id="path2" d="M93.045 27.126 C 92.826 27.481,96.356 27.378,96.715 27.019 C 96.835 26.898,96.104 26.800,95.090 26.800 C 94.077 26.800,93.156 26.947,93.045 27.126 M117.330 27.100 C 128.072 27.159,145.532 27.159,156.130 27.100 C 166.729 27.041,157.940 26.992,136.600 26.992 C 115.260 26.992,106.589 27.041,117.330 27.100 M226.900 27.100 C 240.705 27.158,263.295 27.158,277.100 27.100 C 290.905 27.042,279.610 26.994,252.000 26.994 C 224.390 26.994,213.095 27.042,226.900 27.100 M303.900 27.082 C 304.395 27.178,304.800 27.445,304.800 27.677 C 304.800 27.939,305.024 27.912,305.395 27.604 C 305.722 27.333,306.271 27.219,306.616 27.351 C 306.976 27.489,307.138 27.423,306.997 27.195 C 306.863 26.978,305.908 26.825,304.876 26.854 C 303.844 26.884,303.405 26.987,303.900 27.082 M90.600 27.600 C 89.493 27.882,89.477 27.909,90.400 27.947 C 90.950 27.969,91.670 27.813,92.000 27.600 C 92.681 27.160,92.329 27.160,90.600 27.600 M308.000 27.594 C 308.330 27.811,309.035 27.991,309.567 27.994 C 310.851 28.002,310.525 27.775,308.800 27.458 C 307.815 27.277,307.578 27.318,308.000 27.594 M76.039 31.422 C 75.291 31.747,74.763 32.096,74.866 32.199 C 75.133 32.467,77.600 31.486,77.600 31.112 C 77.600 30.726,77.677 30.711,76.039 31.422 M322.400 31.174 C 322.400 31.357,322.715 31.597,323.100 31.708 C 323.485 31.819,324.145 32.050,324.566 32.223 C 325.073 32.430,325.242 32.392,325.066 32.107 C 324.723 31.552,322.400 30.739,322.400 31.174 M66.446 35.757 C 65.887 36.067,65.666 36.394,65.914 36.547 C 66.279 36.772,67.600 35.852,67.600 35.371 C 67.600 35.134,67.527 35.158,66.446 35.757 M332.650 35.786 C 332.909 36.460,333.900 36.886,334.175 36.441 C 334.285 36.263,333.939 35.918,333.407 35.676 C 332.624 35.319,332.479 35.340,332.650 35.786 M64.176 36.987 C 63.749 37.310,63.614 37.580,63.876 37.587 C 64.138 37.594,64.466 37.417,64.604 37.193 C 64.742 36.970,65.051 36.908,65.289 37.055 C 65.549 37.215,65.609 37.137,65.438 36.862 C 65.081 36.285,65.109 36.282,64.176 36.987 M334.560 36.899 C 334.402 37.175,334.419 37.267,334.599 37.103 C 334.779 36.940,335.172 37.011,335.473 37.260 C 335.773 37.510,336.120 37.613,336.244 37.489 C 336.367 37.366,336.104 37.070,335.659 36.831 C 335.053 36.507,334.776 36.524,334.560 36.899 M54.600 43.600 C 54.199 44.043,53.962 44.495,54.072 44.605 C 54.182 44.715,54.599 44.443,55.000 44.000 C 55.401 43.557,55.638 43.105,55.528 42.995 C 55.418 42.885,55.001 43.157,54.600 43.600 M344.400 43.076 C 344.400 43.296,344.760 43.802,345.200 44.200 C 345.640 44.598,346.000 44.744,346.000 44.524 C 346.000 44.304,345.640 43.798,345.200 43.400 C 344.760 43.002,344.400 42.856,344.400 43.076 M48.800 49.000 C 46.277 51.530,44.319 53.600,44.449 53.600 C 44.579 53.600,46.546 51.710,48.819 49.400 C 52.457 45.703,54.246 44.231,53.362 45.662 C 53.189 45.941,53.252 46.015,53.521 45.849 C 53.858 45.640,53.798 44.400,53.451 44.400 C 53.416 44.400,51.323 46.470,48.800 49.000 M346.274 44.950 C 346.143 45.294,346.235 45.698,346.479 45.849 C 346.748 46.015,346.811 45.941,346.638 45.662 C 345.753 44.230,347.544 45.704,351.186 49.405 C 353.462 51.718,355.380 53.554,355.448 53.485 C 355.517 53.416,353.535 51.328,351.043 48.843 C 347.681 45.491,346.452 44.487,346.274 44.950 M42.480 56.080 C 42.216 56.344,42.000 56.729,42.000 56.936 C 42.000 57.143,41.685 57.568,41.300 57.881 C 40.814 58.277,40.777 58.404,41.181 58.298 C 41.500 58.215,42.081 57.573,42.473 56.873 C 43.236 55.506,43.238 55.322,42.480 56.080 M31.726 75.500 C 31.589 75.885,31.401 76.380,31.309 76.600 C 31.216 76.820,31.424 76.651,31.770 76.224 C 32.399 75.448,32.589 74.800,32.187 74.800 C 32.071 74.800,31.863 75.115,31.726 75.500 M367.600 75.100 C 367.600 75.291,367.861 75.796,368.180 76.224 C 368.740 76.973,368.752 76.968,368.532 76.094 C 368.304 75.191,367.600 74.440,367.600 75.100 M28.667 85.067 C 28.269 85.465,28.345 86.400,28.775 86.400 C 28.981 86.400,29.123 86.040,29.090 85.600 C 29.022 84.696,29.029 84.705,28.667 85.067 M370.908 85.628 C 370.876 86.052,371.019 86.400,371.225 86.400 C 371.680 86.400,371.727 85.325,371.283 85.051 C 371.109 84.944,370.940 85.203,370.908 85.628 M370.983 87.227 C 370.785 87.547,370.841 87.622,371.138 87.438 C 371.442 87.251,371.619 87.538,371.654 88.276 C 371.703 89.288,371.727 89.305,371.888 88.454 C 372.098 87.347,371.451 86.470,370.983 87.227 M27.440 91.100 C 26.928 94.204,26.711 96.990,27.003 96.714 C 27.170 96.556,27.369 95.579,27.447 94.541 C 27.525 93.503,27.726 92.552,27.894 92.427 C 28.336 92.099,28.470 89.600,28.045 89.600 C 27.849 89.600,27.576 90.275,27.440 91.100 M372.007 89.800 C 371.780 90.861,371.832 92.223,372.106 92.427 C 372.274 92.552,372.475 93.503,372.553 94.541 C 372.631 95.579,372.830 96.556,372.997 96.714 C 373.163 96.871,373.194 96.010,373.065 94.800 C 372.801 92.326,372.137 89.189,372.007 89.800 M26.997 200.000 C 26.997 256.650,27.043 279.825,27.100 251.500 C 27.157 223.175,27.157 176.825,27.100 148.500 C 27.043 120.175,26.997 143.350,26.997 200.000 M372.997 200.000 C 372.997 256.650,373.043 279.825,373.100 251.500 C 373.157 223.175,373.157 176.825,373.100 148.500 C 373.043 120.175,372.997 143.350,372.997 200.000 M134.578 113.227 C 133.906 113.423,132.916 114.051,132.378 114.623 L 131.400 115.664 131.289 134.630 C 131.168 155.231,131.162 155.170,133.380 156.624 C 134.639 157.449,264.830 157.640,266.364 156.819 C 268.804 155.514,268.797 155.573,268.797 135.200 C 268.797 114.310,268.843 114.646,265.804 113.376 C 264.203 112.707,136.864 112.563,134.578 113.227 M245.685 246.888 C 242.686 247.670,242.803 246.439,242.801 277.138 C 242.800 307.015,242.730 306.093,245.085 307.166 C 246.839 307.965,266.024 307.725,267.053 306.891 C 268.810 305.468,268.800 305.639,268.800 277.206 C 268.800 247.083,268.885 248.096,266.265 247.001 C 264.793 246.386,247.963 246.293,245.685 246.888 M170.080 249.680 C 169.816 249.944,169.600 250.559,169.600 251.047 C 169.600 253.487,171.011 254.030,171.296 251.700 C 171.576 249.410,171.115 248.645,170.080 249.680 M206.785 254.600 C 206.749 256.360,206.648 260.199,206.562 263.131 C 206.404 268.505,206.673 270.000,207.799 270.000 C 208.266 270.000,208.337 269.323,208.189 266.300 C 208.089 264.265,207.929 260.530,207.832 258.000 C 207.610 252.197,206.883 249.836,206.785 254.600 M220.971 251.906 C 220.352 252.330,220.028 253.398,220.357 253.930 C 220.769 254.597,222.400 253.357,222.400 252.377 C 222.400 251.588,221.749 251.373,220.971 251.906 M178.000 263.229 C 178.000 263.464,178.270 263.927,178.600 264.257 C 179.133 264.790,179.200 264.743,179.200 263.829 C 179.200 263.181,178.978 262.800,178.600 262.800 C 178.270 262.800,178.000 262.993,178.000 263.229 M133.200 284.000 C 132.249 284.951,132.127 287.120,133.005 287.457 C 134.277 287.945,136.452 284.827,135.576 283.771 C 134.921 282.982,134.143 283.057,133.200 284.000 M206.814 285.174 C 206.360 286.023,206.317 299.401,206.762 301.400 L 207.029 302.600 207.514 301.240 C 207.782 300.492,208.000 298.565,208.000 296.957 C 208.000 293.410,208.760 288.000,209.259 288.000 C 209.458 288.000,209.346 287.469,209.010 286.820 C 208.675 286.171,208.400 285.361,208.400 285.020 C 208.400 284.143,207.309 284.249,206.814 285.174 M169.783 285.228 C 169.637 285.464,169.578 288.479,169.652 291.928 C 169.726 295.378,169.719 299.599,169.638 301.308 C 169.514 303.925,169.610 304.548,170.245 305.251 L 171.000 306.086 171.343 304.543 C 171.841 302.302,171.734 296.398,171.177 295.357 C 170.817 294.683,170.810 294.147,171.150 293.173 C 171.706 291.578,171.720 291.079,171.200 291.400 C 170.980 291.536,170.800 291.377,170.800 291.047 C 170.800 290.717,170.980 290.336,171.200 290.200 C 171.420 290.064,171.600 288.873,171.600 287.553 C 171.600 286.055,171.450 285.246,171.200 285.400 C 170.980 285.536,170.800 285.457,170.800 285.224 C 170.800 284.674,170.123 284.677,169.783 285.228 M133.086 300.362 C 132.297 301.698,132.172 304.812,132.880 305.520 C 133.480 306.120,134.800 306.150,134.800 305.563 C 134.800 305.323,135.170 304.656,135.623 304.080 C 136.581 302.863,136.401 301.493,135.101 300.100 C 134.027 298.950,133.912 298.965,133.086 300.362 M26.800 305.533 C 26.800 306.670,26.947 307.600,27.126 307.600 C 27.533 307.600,27.510 304.176,27.100 303.766 C 26.935 303.602,26.800 304.397,26.800 305.533 M372.743 303.700 C 372.501 304.123,372.618 307.600,372.874 307.600 C 373.053 307.600,373.200 306.700,373.200 305.600 C 373.200 303.933,373.025 303.206,372.743 303.700 M27.388 308.900 C 27.505 309.505,27.719 310.495,27.865 311.100 C 28.011 311.705,28.093 312.425,28.048 312.700 C 28.002 312.975,28.128 313.200,28.328 313.200 C 28.528 313.200,28.691 312.485,28.691 311.610 C 28.691 310.736,28.535 310.116,28.345 310.234 C 28.155 310.351,27.997 310.122,27.994 309.724 C 27.991 309.326,27.805 308.730,27.582 308.400 C 27.276 307.948,27.228 308.071,27.388 308.900 M372.153 309.136 C 372.014 309.831,371.778 310.400,371.629 310.400 C 371.480 310.400,371.341 311.030,371.319 311.800 C 371.297 312.570,371.430 313.200,371.615 313.200 C 371.799 313.200,371.952 312.885,371.953 312.500 C 371.955 312.115,372.131 310.990,372.343 310.000 C 372.556 309.010,372.657 308.126,372.568 308.036 C 372.479 307.946,372.292 308.441,372.153 309.136 M31.283 324.067 C 31.500 324.690,31.754 325.200,31.845 325.200 C 31.937 325.200,31.974 324.690,31.926 324.067 C 31.879 323.443,31.626 322.933,31.364 322.933 C 31.015 322.933,30.994 323.236,31.283 324.067 M368.074 324.067 C 368.026 324.690,368.063 325.200,368.155 325.200 C 368.246 325.200,368.500 324.690,368.717 324.067 C 369.006 323.236,368.985 322.933,368.636 322.933 C 368.374 322.933,368.121 323.443,368.074 324.067 M364.884 331.015 C 364.460 331.496,364.470 331.600,364.941 331.600 C 365.257 331.600,365.618 331.330,365.745 331.000 C 366.036 330.241,365.560 330.249,364.884 331.015 M35.441 333.300 C 36.332 335.053,36.417 335.108,36.314 333.868 C 36.265 333.281,36.074 332.800,35.889 332.800 C 35.704 332.800,35.664 332.620,35.800 332.400 C 35.936 332.180,35.762 332.000,35.413 332.000 C 34.840 332.000,34.843 332.125,35.441 333.300 M364.086 333.068 C 363.989 334.245,364.071 334.225,364.760 332.900 C 365.132 332.185,365.120 332.000,364.701 332.000 C 364.412 332.000,364.135 332.481,364.086 333.068 M38.637 339.000 C 38.997 339.550,39.357 340.000,39.437 340.000 C 39.517 340.000,39.378 339.550,39.127 339.000 C 38.877 338.450,38.516 338.000,38.327 338.000 C 38.137 338.000,38.276 338.450,38.637 339.000 M360.873 339.000 C 360.622 339.550,360.483 340.000,360.563 340.000 C 360.643 340.000,361.003 339.550,361.363 339.000 C 361.724 338.450,361.863 338.000,361.673 338.000 C 361.484 338.000,361.123 338.450,360.873 339.000 M42.059 343.155 C 41.636 343.423,41.720 343.639,42.448 344.149 C 42.960 344.507,43.220 344.800,43.027 344.800 C 42.834 344.800,43.002 345.160,43.400 345.600 C 43.798 346.040,44.321 346.395,44.562 346.388 C 44.803 346.381,44.685 346.192,44.300 345.968 C 43.915 345.744,43.600 345.294,43.600 344.968 C 43.600 344.642,43.320 344.267,42.977 344.136 C 42.634 344.004,42.449 343.650,42.564 343.348 C 42.809 342.710,42.779 342.699,42.059 343.155 M357.443 343.369 C 357.555 343.659,357.366 344.004,357.023 344.136 C 356.680 344.267,356.400 344.642,356.400 344.968 C 356.400 345.294,356.085 345.744,355.700 345.968 C 355.315 346.192,355.197 346.381,355.438 346.388 C 355.679 346.395,356.202 346.040,356.600 345.600 C 356.998 345.160,357.186 344.800,357.018 344.800 C 356.849 344.800,357.119 344.470,357.617 344.066 C 358.392 343.439,358.430 343.297,357.882 343.087 C 357.454 342.922,357.308 343.016,357.443 343.369 M44.911 346.723 C 44.578 346.935,45.891 348.500,49.011 351.611 C 51.535 354.128,53.600 356.090,53.600 355.973 C 53.600 355.855,51.690 353.848,49.355 351.513 C 46.980 349.138,45.229 347.077,45.379 346.834 C 45.694 346.324,45.581 346.297,44.911 346.723 M354.624 346.839 C 354.770 347.076,352.988 349.170,350.651 351.507 C 348.320 353.838,346.464 355.797,346.526 355.859 C 346.589 355.922,348.672 353.935,351.157 351.443 C 354.652 347.939,355.525 346.857,355.016 346.661 C 354.602 346.503,354.457 346.569,354.624 346.839 M54.000 355.938 C 54.000 356.124,54.360 356.602,54.800 357.000 C 55.240 357.398,55.600 357.606,55.600 357.462 C 55.600 357.318,55.240 356.840,54.800 356.400 C 54.360 355.960,54.000 355.752,54.000 355.938 M345.462 356.183 C 345.332 356.522,344.989 356.800,344.701 356.800 C 344.413 356.800,343.870 357.160,343.493 357.600 C 343.116 358.040,342.992 358.400,343.216 358.400 C 343.441 358.400,343.728 358.131,343.854 357.802 C 343.981 357.474,344.221 357.289,344.388 357.393 C 344.760 357.622,346.216 356.083,345.914 355.780 C 345.795 355.662,345.592 355.843,345.462 356.183 M341.676 359.049 C 341.388 359.362,340.978 359.510,340.766 359.379 C 340.554 359.248,340.430 359.289,340.490 359.470 C 340.551 359.652,340.420 359.872,340.200 359.960 C 339.980 360.048,339.602 360.391,339.361 360.721 C 339.119 361.052,338.759 361.244,338.561 361.148 C 338.362 361.052,337.570 361.589,336.800 362.341 C 335.239 363.865,335.452 363.779,339.258 361.353 C 341.733 359.776,342.679 358.935,342.340 358.614 C 342.263 358.541,341.964 358.736,341.676 359.049 M59.374 360.358 C 59.523 360.599,60.016 360.995,60.471 361.238 C 61.062 361.554,61.220 361.556,61.026 361.242 C 60.877 361.001,60.384 360.605,59.929 360.362 C 59.338 360.046,59.180 360.044,59.374 360.358 M61.664 361.319 C 61.739 361.714,62.430 362.407,63.200 362.858 L 64.600 363.679 63.600 362.813 C 63.050 362.338,62.359 361.645,62.064 361.274 C 61.566 360.648,61.538 360.651,61.664 361.319 M67.200 364.529 C 67.200 364.851,67.470 365.218,67.800 365.345 C 68.130 365.471,68.400 365.478,68.400 365.359 C 68.400 365.240,68.130 364.873,67.800 364.543 C 67.280 364.022,67.200 364.021,67.200 364.529 M332.060 364.666 C 331.419 365.361,331.599 365.695,332.360 365.225 C 332.656 365.042,332.831 364.709,332.749 364.486 C 332.663 364.250,332.372 364.326,332.060 364.666 M68.806 365.217 C 68.803 365.567,69.720 366.285,70.933 366.880 C 72.490 367.643,73.067 367.778,73.067 367.381 C 73.067 367.081,72.917 366.928,72.733 367.041 C 72.550 367.155,72.400 367.027,72.400 366.757 C 72.400 366.487,72.287 366.379,72.149 366.517 C 71.854 366.812,69.532 365.688,69.106 365.044 C 68.916 364.756,68.810 364.817,68.806 365.217 M330.800 365.151 C 330.800 365.533,328.389 366.650,327.900 366.495 C 327.735 366.443,327.600 366.591,327.600 366.824 C 327.600 367.057,327.450 367.155,327.267 367.041 C 327.083 366.928,326.933 367.081,326.933 367.381 C 326.933 367.778,327.510 367.643,329.067 366.880 C 330.789 366.035,331.937 364.800,331.000 364.800 C 330.890 364.800,330.800 364.958,330.800 365.151 M323.600 368.600 C 323.600 368.928,323.900 369.047,324.400 368.916 C 324.840 368.801,325.200 368.659,325.200 368.600 C 325.200 368.541,324.840 368.399,324.400 368.284 C 323.900 368.153,323.600 368.272,323.600 368.600 M78.165 369.826 C 79.026 370.143,79.821 370.312,79.932 370.202 C 80.043 370.091,79.913 370.000,79.643 370.000 C 79.373 370.000,79.236 369.865,79.337 369.700 C 79.439 369.535,78.865 369.366,78.061 369.324 L 76.600 369.249 78.165 369.826 M320.663 369.700 C 320.764 369.865,320.627 370.000,320.357 370.000 C 320.087 370.000,319.957 370.091,320.068 370.202 C 320.179 370.312,320.974 370.143,321.835 369.826 L 323.400 369.249 321.939 369.324 C 321.135 369.366,320.561 369.535,320.663 369.700 M83.200 371.200 C 83.200 371.420,83.425 371.602,83.700 371.605 C 83.975 371.608,84.650 371.708,85.200 371.827 C 85.927 371.985,85.833 371.874,84.854 371.422 C 83.266 370.688,83.200 370.679,83.200 371.200 M315.000 371.452 C 313.955 371.963,313.929 372.011,314.800 371.825 C 315.350 371.707,316.025 371.608,316.300 371.605 C 316.575 371.602,316.800 371.420,316.800 371.200 C 316.800 370.686,316.473 370.732,315.000 371.452 M86.800 371.993 C 87.479 372.440,88.681 372.547,88.256 372.123 C 88.104 371.971,87.579 371.790,87.090 371.722 C 86.384 371.623,86.324 371.679,86.800 371.993 M89.016 371.975 C 88.869 372.212,89.218 372.579,89.802 372.801 C 91.175 373.323,92.920 373.318,92.596 372.793 C 92.458 372.570,92.177 372.491,91.972 372.617 C 91.768 372.744,91.600 372.657,91.600 372.424 C 91.600 372.191,91.409 372.000,91.176 372.000 C 90.943 372.000,90.864 372.180,91.000 372.400 C 91.380 373.014,90.746 372.875,89.971 372.174 C 89.512 371.758,89.191 371.691,89.016 371.975 M309.996 372.204 C 309.447 372.866,308.610 373.030,309.000 372.400 C 309.136 372.180,309.057 372.000,308.824 372.000 C 308.591 372.000,308.400 372.191,308.400 372.424 C 308.400 372.657,308.232 372.744,308.028 372.617 C 307.823 372.491,307.525 372.597,307.366 372.854 C 307.156 373.195,307.540 373.260,308.787 373.092 C 310.586 372.851,311.563 372.271,310.880 371.850 C 310.666 371.717,310.268 371.877,309.996 372.204 M311.746 372.087 C 311.478 372.521,312.472 372.469,313.195 372.012 C 313.659 371.718,313.586 371.651,312.865 371.705 C 312.356 371.743,311.852 371.915,311.746 372.087 M94.622 372.787 C 91.470 373.914,98.941 374.000,200.000 374.000 C 301.059 374.000,308.530 373.914,305.378 372.787 C 304.932 372.628,304.264 372.741,303.813 373.053 C 302.637 373.866,97.363 373.866,96.187 373.053 C 95.736 372.741,95.068 372.628,94.622 372.787 " stroke="none" fill="#fbfbfb" fill-rule="evenodd"></path></g></svg>